#!OML:ASF X:\für Bonn\!DataBase\2005_08_12_Daniel\c3d\Daniel.ASF
:FULLY-SPECIFIED
:DEGREES
3361
root 2.17531 17.5072 -1.70059 -22.915 -78.7425 384.266
lowerback 9.45149 -2.61155 -1.9098
upperback 1.1536 -3.79728 -1.87635
thorax -4.09768 -1.88277 -0.38835
lowerneck -1.54454 1.40361 -5.68809
upperneck 9.03852 2.24277 -3.12716
head 3.14272 0.74288 0.0339568
rclavicle 9.93923e-015 -1.00386e-014
rhumerus -40.5626 -30.7744 -52.7209
rradius 14.3404
rwrist 24.691
rhand -24.3797 14.5942
rfingers 7.12502
rthumb 2.11067 -15.3751
lclavicle 9.93923e-015 -1.00386e-014
lhumerus -52.5597 42.2177 56.7893
lradius 16.6406
lwrist -41.386
lhand -6.65041 -4.36848
lfingers 7.12502
lthumb 19.207 24.7031
rfemur -7.89595 16.647 13.3702
rtibia 33.2784
rfoot -38.7875 -14.6015
rtoes -11.9813
lfemur -20.3748 0.623358 -21.3996
ltibia 48.0963
lfoot -21.513 -9.09713
ltoes -14.3738
3362
root 2.21377 17.5102 -1.73785 -21.5595 -78.2214 382.882
lowerback 9.36393 -2.62566 -1.87998
upperback 1.17315 -3.80638 -1.82744
thorax -4.02701 -1.88783 -0.358222
lowerneck -1.65841 1.32737 -5.71855
upperneck 9.03867 2.14033 -2.92373
head 3.16286 0.699916 0.103383
rclavicle -1.58531e-014 -1.8487e-014
rhumerus -40.8119 -31.4898 -52.394
rradius 14.2405
rwrist 25.0163
rhand -24.8265 14.471
rfingers 7.12502
rthumb 1.67913 -15.5021
lclavicle -1.58531e-014 -1.8487e-014
lhumerus -58.6233 47.7661 47.4897
lradius 15.0866
lwrist -50.4292
lhand -6.62626 -4.23371
lfingers 7.12502
lthumb 19.2302 24.8355
rfemur -7.89278 16.7005 13.6229
rtibia 33.3204
rfoot -38.9419 -14.8605
rtoes -11.9186
lfemur -19.8743 0.309458 -21.4964
ltibia 47.5554
lfoot -21.8676 -8.63913
ltoes -14.0673
3363
root 2.25354 17.5149 -1.77397 -20.7769 -77.7309 382.084
lowerback 9.30559 -2.61022 -1.90554
upperback 1.18064 -3.78693 -1.84199
thorax -3.98615 -1.87836 -0.364623
lowerneck -1.74847 1.25172 -5.69776
upperneck 9.0001 2.03518 -2.74468
head 3.16615 0.658248 0.155694
rclavicle -2.75814e-015 1.71949e-014
rhumerus -41.0823 -32.0571 -52.2449
rradius 14.2135
rwrist 25.2649
rhand -25.1236 14.3431
rfingers 7.12502
rthumb 1.39216 -15.6321
lclavicle -2.75814e-015 1.71949e-014
lhumerus -67.8458 52.7449 34.837
lradius 13.8168
lwrist -60.9187
lhand -6.68481 -4.15488
lfingers 7.12502
lthumb 19.1739 24.92
rfemur -7.9153 16.7918 13.7691
rtibia 33.342
rfoot -39.0273 -15.1284
rtoes -11.7231
lfemur -19.3812 -0.0602899 -21.663
ltibia 46.9594
lfoot -22.2821 -7.9836
ltoes -14.1369
3364
root 2.294 17.52 -1.80621 -20.0436 -77.3481 381.316
lowerback 9.27555 -2.58047 -1.89332
upperback 1.19414 -3.74371 -1.82541
thorax -3.95518 -1.85727 -0.361525
lowerneck -1.83086 1.19044 -5.79824
upperneck 8.94879 1.9482 -2.50001
head 3.16224 0.624251 0.250579
rclavicle -1.75179e-015 2.27608e-014
rhumerus -41.2699 -32.6296 -52.1106
rradius 14.1602
rwrist 25.4718
rhand -25.2288 14.3087
rfingers 7.12502
rthumb 1.29061 -15.6671
lclavicle -1.75179e-015 2.27608e-014
lhumerus -81.3339 56.3697 17.8658
lradius 12.9113
lwrist -72.6684
lhand -6.99971 -3.94137
lfingers 7.12502
lthumb 18.8711 25.1632
rfemur -7.95738 16.7472 13.9159
rtibia 33.3723
rfoot -39.0177 -15.2163
rtoes -11.8442
lfemur -18.8514 -0.350932 -21.7769
ltibia 46.315
lfoot -22.7576 -7.22648
ltoes -14.8249
3365
root 2.33349 17.523 -1.83632 -19.5113 -77.0581 380.722
lowerback 9.26876 -2.50898 -1.83045
upperback 1.20173 -3.643 -1.84748
thorax -3.94927 -1.80862 -0.432353
lowerneck -1.90881 1.11426 -5.90375
upperneck 8.9291 1.83786 -2.19674
head 3.16882 0.579748 0.364822
rclavicle -5.04416e-015 1.39149e-014
rhumerus -41.5983 -33.3806 -51.8754
rradius 14.1064
rwrist 25.851
rhand -25.027 14.4527
rfingers 7.12502
rthumb 1.4855 -15.5219
lclavicle -5.04416e-015 1.39149e-014
lhumerus -95.8882 57.3204 0.186091
lradius 12.4399
lwrist -83.9199
lhand -7.32059 -3.54847
lfingers 7.12502
lthumb 18.5625 25.5859
rfemur -7.99957 16.8107 14.0501
rtibia 33.413
rfoot -39.0414 -15.2088
rtoes -11.4826
lfemur -18.2736 -0.611397 -21.8679
ltibia 45.6128
lfoot -23.2536 -6.51173
ltoes -15.5007
3366
root 2.37338 17.525 -1.86441 -19.0479 -76.7387 380.21
lowerback 9.25488 -2.45052 -1.8032
upperback 1.21773 -3.56235 -1.8598
thorax -3.92754 -1.7695 -0.471338
lowerneck -1.93426 1.04595 -6.08678
upperneck 8.81346 1.73434 -1.88803
head 3.13274 0.539794 0.493588
rclavicle 3.55576e-014 5.26779e-015
rhumerus -41.7763 -33.9424 -51.8342
rradius 14.0743
rwrist 25.8888
rhand -24.7095 14.637
rfingers 7.12502
rthumb 1.79209 -15.3352
lclavicle 3.55576e-014 5.26779e-015
lhumerus -108.748 56.1031 -15.4095
lradius 12.2271
lwrist -94.0557
lhand -7.69513 -3.08594
lfingers 7.12502
lthumb 18.2022 26.0824
rfemur -8.08509 16.68 14.1322
rtibia 33.4731
rfoot -38.9494 -15.1824
rtoes -11.5214
lfemur -17.6997 -0.985001 -21.9753
ltibia 44.857
lfoot -23.7447 -5.82993
ltoes -16.1625
3367
root 2.41188 17.5264 -1.8907 -18.7001 -76.4755 379.806
lowerback 9.2412 -2.35982 -1.76834
upperback 1.23552 -3.43813 -1.87221
thorax -3.90444 -1.70894 -0.520023
lowerneck -1.93808 0.969088 -6.31073
upperneck 8.70214 1.61849 -1.56412
head 3.09519 0.492576 0.6339
rclavicle -3.90612e-014 -3.97569e-016
rhumerus -42.1004 -34.7316 -51.601
rradius 14.0574
rwrist 26.3232
rhand -24.2891 14.8114
rfingers 7.12502
rthumb 2.19813 -15.157
lclavicle -3.90612e-014 -3.97569e-016
lhumerus -117.599 53.9386 -26.3093
lradius 12.2687
lwrist -102.101
lhand -7.91731 -2.62008
lfingers 7.12502
lthumb 17.9884 26.568
rfemur -8.14797 16.7065 14.2131
rtibia 33.5303
rfoot -38.965 -15.146
rtoes -11.3891
lfemur -17.1002 -1.28358 -22.0732
ltibia 44.0363
lfoot -24.3727 -5.21235
ltoes -16.6582
